{
  "accessors": [
    {
      "bufferView": 2,
      "componentType": 5126,
      "count": 9669,
      "max": [
        0.9906034469604492,
        0.9990749955177307,
        0.18925464153289795
      ],
      "min": [
        -1.0400915145874023,
        -1.005777359008789,
        -1.0840458869934082
      ],
      "type": "VEC3"
    },
    {
      "bufferView": 2,
      "byteOffset": 116028,
      "componentType": 5126,
      "count": 9669,
      "max": [
        1.0,
        1.0,
        1.0
      ],
      "min": [
        -1.0,
        -1.0,
        -1.0
      ],
      "type": "VEC3"
    },
    {
      "bufferView": 1,
      "componentType": 5126,
      "count": 9669,
      "max": [
        1.0,
        1.0
      ],
      "min": [
        0.0,
        0.0
      ],
      "type": "VEC2"
    },
    {
      "bufferView": 1,
      "byteOffset": 77352,
      "componentType": 5126,
      "count": 9669,
      "max": [
        1.0,
        1.0
      ],
      "min": [
        0.0,
        0.0
      ],
      "type": "VEC2"
    },
    {
      "bufferView": 1,
      "byteOffset": 154704,
      "componentType": 5126,
      "count": 9669,
      "max": [
        1.0,
        1.0
      ],
      "min": [
        0.0,
        0.0
      ],
      "type": "VEC2"
    },
    {
      "bufferView": 0,
      "componentType": 5125,
      "count": 50874,
      "type": "SCALAR"
    },
    {
      "bufferView": 2,
      "byteOffset": 232056,
      "componentType": 5126,
      "count": 1530,
      "max": [
        1.016805648803711,
        0.7978324294090271,
        0.4184788465499878
      ],
      "min": [
        -1.0873427391052246,
        -0.8240368366241455,
        -0.49027520418167114
      ],
      "type": "VEC3"
    },
    {
      "bufferView": 2,
      "byteOffset": 250416,
      "componentType": 5126,
      "count": 1530,
      "max": [
        0.9983826875686646,
        0.9963967800140381,
        0.9996472597122192
      ],
      "min": [
        -0.9998855590820313,
        -0.9863276481628418,
        -0.9996532201766968
      ],
      "type": "VEC3"
    },
    {
      "bufferView": 1,
      "byteOffset": 232056,
      "componentType": 5126,
      "count": 1530,
      "max": [
        0.9642494320869446,
        0.9603594541549683
      ],
      "min": [
        0.1799609363079071,
        0.0
      ],
      "type": "VEC2"
    },
    {
      "bufferView": 1,
      "byteOffset": 244296,
      "componentType": 5126,
      "count": 1530,
      "max": [
        0.9642494320869446,
        0.9603594541549683
      ],
      "min": [
        0.1799609363079071,
        0.0
      ],
      "type": "VEC2"
    },
    {
      "bufferView": 1,
      "byteOffset": 256536,
      "componentType": 5126,
      "count": 1530,
      "max": [
        0.9642494320869446,
        0.9603594541549683
      ],
      "min": [
        0.1799609363079071,
        0.0
      ],
      "type": "VEC2"
    },
    {
      "bufferView": 0,
      "byteOffset": 203496,
      "componentType": 5125,
      "count": 7536,
      "type": "SCALAR"
    },
    {
      "bufferView": 2,
      "byteOffset": 268776,
      "componentType": 5126,
      "count": 1530,
      "max": [
        1.016805648803711,
        0.7978324294090271,
        0.4184788465499878
      ],
      "min": [
        -1.0873427391052246,
        -0.8240368366241455,
        -0.49027520418167114
      ],
      "type": "VEC3"
    },
    {
      "bufferView": 2,
      "byteOffset": 287136,
      "componentType": 5126,
      "count": 1530,
      "max": [
        0.9983826875686646,
        0.9963967800140381,
        0.9996472597122192
      ],
      "min": [
        -0.9998855590820313,
        -0.9863276481628418,
        -0.9996532201766968
      ],
      "type": "VEC3"
    },
    {
      "bufferView": 1,
      "byteOffset": 268776,
      "componentType": 5126,
      "count": 1530,
      "max": [
        0.9642494320869446,
        0.9213764071464539
      ],
      "min": [
        0.0,
        0.0
      ],
      "type": "VEC2"
    },
    {
      "bufferView": 1,
      "byteOffset": 281016,
      "componentType": 5126,
      "count": 1530,
      "max": [
        0.9642494320869446,
        0.9213764071464539
      ],
      "min": [
        0.0,
        0.0
      ],
      "type": "VEC2"
    },
    {
      "bufferView": 1,
      "byteOffset": 293256,
      "componentType": 5126,
      "count": 1530,
      "max": [
        0.9642494320869446,
        0.9213764071464539
      ],
      "min": [
        0.0,
        0.0
      ],
      "type": "VEC2"
    },
    {
      "bufferView": 0,
      "byteOffset": 233640,
      "componentType": 5125,
      "count": 7536,
      "type": "SCALAR"
    },
    {
      "bufferView": 2,
      "byteOffset": 305496,
      "componentType": 5126,
      "count": 1530,
      "max": [
        1.016805648803711,
        0.7978324294090271,
        0.4184788465499878
      ],
      "min": [
        -1.0873427391052246,
        -0.8240368366241455,
        -0.49027520418167114
      ],
      "type": "VEC3"
    },
    {
      "bufferView": 2,
      "byteOffset": 323856,
      "componentType": 5126,
      "count": 1530,
      "max": [
        0.9983826875686646,
        0.9963967800140381,
        0.9996472597122192
      ],
      "min": [
        -0.9998855590820313,
        -0.9863276481628418,
        -0.9996532201766968
      ],
      "type": "VEC3"
    },
    {
      "bufferView": 1,
      "byteOffset": 305496,
      "componentType": 5126,
      "count": 1530,
      "max": [
        0.9511488676071167,
        1.0
      ],
      "min": [
        0.0,
        0.0
      ],
      "type": "VEC2"
    },
    {
      "bufferView": 1,
      "byteOffset": 317736,
      "componentType": 5126,
      "count": 1530,
      "max": [
        0.9511488676071167,
        1.0
      ],
      "min": [
        0.0,
        0.0
      ],
      "type": "VEC2"
    },
    {
      "bufferView": 1,
      "byteOffset": 329976,
      "componentType": 5126,
      "count": 1530,
      "max": [
        0.9511488676071167,
        1.0
      ],
      "min": [
        0.0,
        0.0
      ],
      "type": "VEC2"
    },
    {
      "bufferView": 0,
      "byteOffset": 263784,
      "componentType": 5125,
      "count": 7536,
      "type": "SCALAR"
    },
    {
      "bufferView": 2,
      "byteOffset": 342216,
      "componentType": 5126,
      "count": 1530,
      "max": [
        1.016805648803711,
        0.7978324294090271,
        0.4184788465499878
      ],
      "min": [
        -1.0873427391052246,
        -0.8240368366241455,
        -0.49027520418167114
      ],
      "type": "VEC3"
    },
    {
      "bufferView": 2,
      "byteOffset": 360576,
      "componentType": 5126,
      "count": 1530,
      "max": [
        0.9983826875686646,
        0.9963967800140381,
        0.9996472597122192
      ],
      "min": [
        -0.9998855590820313,
        -0.9863276481628418,
        -0.9996532201766968
      ],
      "type": "VEC3"
    },
    {
      "bufferView": 1,
      "byteOffset": 342216,
      "componentType": 5126,
      "count": 1530,
      "max": [
        1.0,
        0.9454724788665771
      ],
      "min": [
        0.16273774206638336,
        0.0
      ],
      "type": "VEC2"
    },
    {
      "bufferView": 1,
      "byteOffset": 354456,
      "componentType": 5126,
      "count": 1530,
      "max": [
        1.0,
        0.9454724788665771
      ],
      "min": [
        0.16273774206638336,
        0.0
      ],
      "type": "VEC2"
    },
    {
      "bufferView": 1,
      "byteOffset": 366696,
      "componentType": 5126,
      "count": 1530,
      "max": [
        1.0,
        0.9454724788665771
      ],
      "min": [
        0.16273774206638336,
        0.0
      ],
      "type": "VEC2"
    },
    {
      "bufferView": 0,
      "byteOffset": 293928,
      "componentType": 5125,
      "count": 7536,
      "type": "SCALAR"
    },
    {
      "bufferView": 2,
      "byteOffset": 378936,
      "componentType": 5126,
      "count": 1530,
      "max": [
        1.016805648803711,
        0.7978324294090271,
        0.4184788465499878
      ],
      "min": [
        -1.0873427391052246,
        -0.8240368366241455,
        -0.49027520418167114
      ],
      "type": "VEC3"
    },
    {
      "bufferView": 2,
      "byteOffset": 397296,
      "componentType": 5126,
      "count": 1530,
      "max": [
        0.9983826875686646,
        0.9963967800140381,
        0.9996472597122192
      ],
      "min": [
        -0.9998855590820313,
        -0.9863276481628418,
        -0.9996532201766968
      ],
      "type": "VEC3"
    },
    {
      "bufferView": 1,
      "byteOffset": 378936,
      "componentType": 5126,
      "count": 1530,
      "max": [
        0.9642494320869446,
        0.9213764071464539
      ],
      "min": [
        0.0,
        0.0
      ],
      "type": "VEC2"
    },
    {
      "bufferView": 1,
      "byteOffset": 391176,
      "componentType": 5126,
      "count": 1530,
      "max": [
        0.9642494320869446,
        0.9213764071464539
      ],
      "min": [
        0.0,
        0.0
      ],
      "type": "VEC2"
    },
    {
      "bufferView": 1,
      "byteOffset": 403416,
      "componentType": 5126,
      "count": 1530,
      "max": [
        0.9642494320869446,
        0.9213764071464539
      ],
      "min": [
        0.0,
        0.0
      ],
      "type": "VEC2"
    },
    {
      "bufferView": 0,
      "byteOffset": 324072,
      "componentType": 5125,
      "count": 7536,
      "type": "SCALAR"
    }
  ],
  "asset": {
    "extras": {
      "author": "Helindu (https://sketchfab.com/Helindu)",
      "license": "CC-BY-4.0 (http://creativecommons.org/licenses/by/4.0/)",
      "source": "https://sketchfab.com/3d-models/submarine-propeller-fe255a26057341099c7139b9d6648e76",
      "title": "submarine propeller"
    },
    "generator": "Sketchfab-12.65.0",
    "version": "2.0"
  },
  "bufferViews": [
    {
      "buffer": 0,
      "byteLength": 354216,
      "name": "floatBufferViews",
      "target": 34963
    },
    {
      "buffer": 0,
      "byteLength": 415656,
      "byteOffset": 354216,
      "byteStride": 8,
      "name": "floatBufferViews",
      "target": 34962
    },
    {
      "buffer": 0,
      "byteLength": 415656,
      "byteOffset": 769872,
      "byteStride": 12,
      "name": "floatBufferViews",
      "target": 34962
    }
  ],
  "buffers": [
    {
      "byteLength": 1185528,
      "uri": "scene.bin"
    }
  ],
  "materials": [
    {
      "doubleSided": true,
      "name": "Material.001",
      "pbrMetallicRoughness": {
        "baseColorFactor": [
          0.10340415119459043,
          0.10340415119459043,
          0.10340415119459043,
          1.0
        ],
        "roughnessFactor": 0.3658307226537606
      }
    }
  ],
  "meshes": [
    {
      "name": "Cylinder.001_Material.001_0",
      "primitives": [
        {
          "attributes": {
            "NORMAL": 1,
            "POSITION": 0,
            "TEXCOORD_0": 2,
            "TEXCOORD_1": 3,
            "TEXCOORD_2": 4
          },
          "indices": 5,
          "material": 0,
          "mode": 4
        }
      ]
    },
    {
      "name": "Plane.001_Material.001_0",
      "primitives": [
        {
          "attributes": {
            "NORMAL": 7,
            "POSITION": 6,
            "TEXCOORD_0": 8,
            "TEXCOORD_1": 9,
            "TEXCOORD_2": 10
          },
          "indices": 11,
          "material": 0,
          "mode": 4
        }
      ]
    },
    {
      "name": "Plane.002_Material.001_0",
      "primitives": [
        {
          "attributes": {
            "NORMAL": 13,
            "POSITION": 12,
            "TEXCOORD_0": 14,
            "TEXCOORD_1": 15,
            "TEXCOORD_2": 16
          },
          "indices": 17,
          "material": 0,
          "mode": 4
        }
      ]
    },
    {
      "name": "Plane.003_Material.001_0",
      "primitives": [
        {
          "attributes": {
            "NORMAL": 19,
            "POSITION": 18,
            "TEXCOORD_0": 20,
            "TEXCOORD_1": 21,
            "TEXCOORD_2": 22
          },
          "indices": 23,
          "material": 0,
          "mode": 4
        }
      ]
    },
    {
      "name": "Plane.004_Material.001_0",
      "primitives": [
        {
          "attributes": {
            "NORMAL": 25,
            "POSITION": 24,
            "TEXCOORD_0": 26,
            "TEXCOORD_1": 27,
            "TEXCOORD_2": 28
          },
          "indices": 29,
          "material": 0,
          "mode": 4
        }
      ]
    },
    {
      "name": "Plane.005_Material.001_0",
      "primitives": [
        {
          "attributes": {
            "NORMAL": 31,
            "POSITION": 30,
            "TEXCOORD_0": 32,
            "TEXCOORD_1": 33,
            "TEXCOORD_2": 34
          },
          "indices": 35,
          "material": 0,
          "mode": 4
        }
      ]
    }
  ],
  "nodes": [
    {
      "children": [
        1
      ],
      "matrix": [
        1.0,
        0.0,
        0.0,
        0.0,
        0.0,
        2.220446049250313e-16,
        -1.0,
        0.0,
        0.0,
        1.0,
        2.220446049250313e-16,
        0.0,
        0.0,
        0.0,
        0.0,
        1.0
      ],
      "name": "Sketchfab_model"
    },
    {
      "children": [
        2
      ],
      "matrix": [
        1.0,
        0.0,
        0.0,
        0.0,
        0.0,
        0.0,
        1.0,
        0.0,
        0.0,
        -1.0,
        0.0,
        0.0,
        0.0,
        0.0,
        0.0,
        1.0
      ],
      "name": "c6a127d168a84580a66b840c59c3d371.fbx"
    },
    {
      "children": [
        3,
        5,
        7,
        9,
        11,
        13
      ],
      "name": "RootNode"
    },
    {
      "children": [
        4
      ],
      "matrix": [
        18.284242630004883,
        0.0,
        0.0,
        0.0,
        0.0,
        18.284242630004865,
        7.992296291290696e-07,
        0.0,
        0.0,
        -3.4662225148668125e-06,
        79.29792785644523,
        0.0,
        2.2709009499521926e-06,
        0.32767540216445923,
        6.341648101806641,
        1.0
      ],
      "name": "Cylinder.001"
    },
    {
      "mesh": 0,
      "name": "Cylinder.001_Material.001_0"
    },
    {
      "children": [
        6
      ],
      "matrix": [
        27.586267677039274,
        24.32976715599864,
        -3.482730805656594,
        0.0,
        -15.912895868901833,
        19.55824985288858,
        10.586594830516654,
        0.0,
        2.2708891646310088,
        -1.6498971007716148,
        6.461522673735883,
        0.0,
        32.42683792114258,
        39.688438415527344,
        -8.5174560546875,
        1.0
      ],
      "name": "Plane.001"
    },
    {
      "mesh": 1,
      "name": "Plane.001_Material.001_0"
    },
    {
      "children": [
        8
      ],
      "matrix": [
        -14.614362760953874,
        33.75441323403655,
        -3.482731439292237,
        0.0,
        -23.51835624700541,
        -9.09023393772917,
        10.586597803935732,
        0.0,
        2.270889099646267,
        1.649898163016778,
        6.46152242533891,
        0.0,
        -27.41386604309082,
        43.33057403564453,
        -8.5174560546875,
        1.0
      ],
      "name": "Plane.002"
    },
    {
      "mesh": 2,
      "name": "Plane.002_Material.001_0"
    },
    {
      "children": [
        10
      ],
      "matrix": [
        31.663609857968073,
        -18.717795139819163,
        -3.482726780446704,
        0.0,
        13.68364854885849,
        21.177893977136158,
        10.586597930898362,
        0.0,
        -0.8674034345381809,
        -2.6695901429888136,
        6.461522502830455,
        0.0,
        47.45475387573242,
        -18.34893226623535,
        -8.5174560546875,
        1.0
      ],
      "name": "Plane.003"
    },
    {
      "mesh": 3,
      "name": "Plane.003_Material.001_0"
    },
    {
      "children": [
        12
      ],
      "matrix": [
        -8.017103541182124,
        -35.89799484455304,
        -3.4827355500382504,
        0.0,
        24.36984826624449,
        -6.469607458522316,
        10.586602924397008,
        0.0,
        -2.8069751490682835,
        1.0799814125375014e-06,
        6.461521788006904,
        0.0,
        -3.0981807708740234,
        -50.575862884521484,
        -8.5174560546875,
        1.0
      ],
      "name": "Plane.004"
    },
    {
      "mesh": 4,
      "name": "Plane.004_Material.001_0"
    },
    {
      "children": [
        14
      ],
      "matrix": [
        -36.618445165943896,
        -3.468366399990457,
        -3.482719929203168,
        0.0,
        1.3777350258598384,
        -25.176319890674865,
        10.586607087586017,
        0.0,
        -0.8673989648598482,
        2.669593879980626,
        6.461522078785311,
        0.0,
        -49.36953353881836,
        -12.455836296081543,
        -8.5174560546875,
        1.0
      ],
      "name": "Plane.005"
    },
    {
      "mesh": 5,
      "name": "Plane.005_Material.001_0"
    }
  ],
  "scene": 0,
  "scenes": [
    {
      "name": "Sketchfab_Scene",
      "nodes": [
        0
      ]
    }
  ]
}
